<svg width="14" height="14" viewBox="0 0 14 14" fill="none" xmlns="http://www.w3.org/2000/svg">
<path fill-rule="evenodd" clip-rule="evenodd" d="M11.127 5.97667L12.4201 4.68355C12.8127 4.29097 13.009 4.09468 13.1139 3.88293C13.3135 3.48005 13.3135 3.00704 13.1139 2.60416C13.009 2.39242 12.8127 2.19613 12.4201 1.80355C12.0275 1.41097 11.8312 1.21468 11.6195 1.10975C11.2166 0.910103 10.7436 0.910103 10.3407 1.10975C10.129 1.21468 9.93267 1.41097 9.54009 1.80355L8.23066 3.11298C8.92464 4.30141 9.92267 5.29181 11.127 5.97667ZM7.18345 4.16019L2.23668 9.10695C1.93064 9.413 1.77762 9.56602 1.67701 9.75401C1.5764 9.942 1.53396 10.1542 1.44908 10.5786L1.00599 12.794C0.958098 13.0335 0.93415 13.1533 1.00227 13.2214C1.07039 13.2895 1.19013 13.2655 1.42961 13.2176L3.64503 12.7746C4.06944 12.6897 4.28164 12.6472 4.46963 12.5466C4.65762 12.446 4.81064 12.293 5.11668 11.987L10.0771 7.02658C8.90946 6.29532 7.92184 5.31446 7.18345 4.16019Z" fill="white"/>
</svg>
